<?xml version="1.0" encoding="UTF-8"?>
<svg id="a" data-name="Layer 1" xmlns="http://www.w3.org/2000/svg" width="1080" height="1390.167" xmlns:xlink="http://www.w3.org/1999/xlink" viewBox="0 0 1080 1390.167">
  <defs>
    <clipPath id="b">
      <circle cx="619.976" cy="256.213" r="241.129" fill="#faf6eb" stroke="#1a1a1a" stroke-width="8.856"/>
    </clipPath>
    <clipPath id="c">
      <circle cx="619.976" cy="256.213" r="241.129" fill="none"/>
    </clipPath>
    <pattern id="d" data-name="New Pattern" x="0" y="0" width="20" height="20" patternTransform="translate(7082.8068 3582.1987) scale(1.5157)" patternUnits="userSpaceOnUse" viewBox="0 0 20 20">
      <g>
        <rect width="20" height="20" fill="none"/>
        <circle cx="20" cy="15" r="2" fill="#1a1a1a"/>
        <circle cx="10" cy="20" r="2" fill="#1a1a1a"/>
        <circle cx="0" cy="15" r="2" fill="#1a1a1a"/>
        <circle cx="20" cy="5" r="2" fill="#1a1a1a"/>
        <circle cx="10" cy="10" r="2" fill="#1a1a1a"/>
        <circle cx="0" cy="5" r="2" fill="#1a1a1a"/>
        <circle cx="10" cy="0" r="2" fill="#1a1a1a"/>
      </g>
    </pattern>
  </defs>
  <path d="M342.412,85.59c-29.547-30.772-76.225-49.608-131.648-49.608-87.519,0-152.114,36.466-202.123,102.105l29.172,41.674,124.527,124.479c-31.793,47.866-85.068,94.679-152.659,142.241l13.545,104.189,180.929,180.929h345.902v-143.779l-81.467-80.413c58.902-45.762,88.76-99.852,88.76-157.134,0-34.494-14.004-64.793-38.029-87.773l-176.908-176.908Z" fill="#1a1a1a" stroke="#1a1a1a" stroke-width="8.856"/>
  <path d="M948.168,243.64l-156.037-156.036c-43.795-44.707-104.775-72.52-172.154-72.52-215.44-.42-321.785,265.288-168.609,413.285l156.035,156.036c43.795,44.707,104.775,72.519,172.156,72.519,215.438.42,321.787-265.288,168.609-413.284Z" fill="#1a1a1a" stroke="#1a1a1a" stroke-width="8.856"/>
  <g>
    <path d="M23.227,550.669l-13.544-104.188c112.524-79.182,185.455-156.281,185.455-239.631,0-47.927-31.257-72.931-72.931-72.931-32.299,0-66.68,22.921-84.392,45.842l-29.172-41.674C58.652,72.448,123.247,35.983,210.764,35.983c95.852,0,165.657,56.261,165.657,133.36,0,92.728-78.139,177.119-231.295,231.297v6.251h224.001v143.779H23.227Z" fill="#f6c900" stroke="#1a1a1a" stroke-width="6.642"/>
    <path d="M23.227,550.669l-13.544-104.188c112.524-79.182,185.455-156.281,185.455-239.631,0-47.927-31.257-72.931-72.931-72.931-32.299,0-66.68,22.921-84.392,45.842l-29.172-41.674C58.652,72.448,123.247,35.983,210.764,35.983c95.852,0,165.657,56.261,165.657,133.36,0,92.728-78.139,177.119-231.295,231.297v6.251h224.001v143.779H23.227Z" fill="#f6c900" stroke="#1a1a1a" stroke-width="6.642"/>
    <path d="M23.227,550.669l-13.544-104.188c112.524-79.182,185.455-156.281,185.455-239.631,0-47.927-31.257-72.931-72.931-72.931-32.299,0-66.68,22.921-84.392,45.842l-29.172-41.674C58.652,72.448,123.247,35.983,210.764,35.983c95.852,0,165.657,56.261,165.657,133.36,0,92.728-78.139,177.119-231.295,231.297v6.251h224.001v143.779H23.227Z" fill="#f6c900" stroke="#1a1a1a" stroke-width="6.642"/>
  </g>
  <path d="M342.412,692.562c-29.547-30.772-76.225-49.608-131.648-49.608-87.519,0-152.114,36.466-202.123,102.105l29.172,41.674,124.527,124.479c-31.793,47.866-85.068,94.679-152.659,142.241l13.545,104.189,180.929,180.929h345.902v-143.779l-81.467-80.413c58.902-45.762,88.76-99.852,88.76-157.134,0-34.494-14.004-64.793-38.029-87.773l-176.908-176.908Z" fill="#1a1a1a" stroke="#1a1a1a" stroke-width="8.856"/>
  <g>
    <path d="M23.227,1157.641l-13.544-104.188c112.524-79.182,185.455-156.281,185.455-239.631,0-47.927-31.257-72.931-72.931-72.931-32.299,0-66.68,22.921-84.392,45.842l-29.172-41.674c50.01-65.639,114.605-102.105,202.123-102.105,95.852,0,165.657,56.261,165.657,133.36,0,92.728-78.139,177.119-231.295,231.297v6.251h224.001v143.779H23.227Z" fill="#f6c900" stroke="#1a1a1a" stroke-width="6.642"/>
    <path d="M23.227,1157.641l-13.544-104.188c112.524-79.182,185.455-156.281,185.455-239.631,0-47.927-31.257-72.931-72.931-72.931-32.299,0-66.68,22.921-84.392,45.842l-29.172-41.674c50.01-65.639,114.605-102.105,202.123-102.105,95.852,0,165.657,56.261,165.657,133.36,0,92.728-78.139,177.119-231.295,231.297v6.251h224.001v143.779H23.227Z" fill="#f6c900" stroke="#1a1a1a" stroke-width="6.642"/>
    <path d="M23.227,1157.641l-13.544-104.188c112.524-79.182,185.455-156.281,185.455-239.631,0-47.927-31.257-72.931-72.931-72.931-32.299,0-66.68,22.921-84.392,45.842l-29.172-41.674c50.01-65.639,114.605-102.105,202.123-102.105,95.852,0,165.657,56.261,165.657,133.36,0,92.728-78.139,177.119-231.295,231.297v6.251h224.001v143.779H23.227Z" fill="#f6c900" stroke="#1a1a1a" stroke-width="6.642"/>
  </g>
  <path d="M1014.013,965.185l-169.514-169.522c37.01-44.872,90.048-76.862,159.137-97.799l-10.42-43.758-180.929-180.929c-228.168,22.922-403.204,193.788-403.204,441.754,0,91.832,27.956,169.012,80.075,218.797l176.908,176.909c40.482,40.774,96.297,64.446,165.66,64.446,151.071,0,239.63-107.314,239.63-246.925,0-72.393-20.626-128.149-57.345-162.974Z" fill="#1a1a1a" stroke="#1a1a1a" stroke-width="8.856"/>
  <circle cx="619.976" cy="256.213" r="241.129" fill="none" stroke="#1a1a1a" stroke-miterlimit="10" stroke-width="8.856"/>
  <g>
    <circle cx="619.976" cy="256.213" r="241.129" fill="#faf6eb"/>
    <g clip-path="url(#b)">
      <g clip-path="url(#c)">
        <g>
          <polygon points="619.976 351.237 710.356 285.572 675.834 179.323 564.118 179.323 529.596 285.572 619.976 351.237" fill="#1a1a1a"/>
          <polygon points="619.976 425.339 548.873 467.573 576.032 535.91 663.92 535.91 691.079 467.573 619.976 425.339" fill="#1a1a1a"/>
          <polygon points="780.824 308.476 799.019 389.15 872.404 384.438 899.563 300.851 842.963 253.904 780.824 308.476" fill="#1a1a1a"/>
          <polygon points="719.386 119.388 801.734 127.013 819.929 55.764 748.826 4.104 686.687 43.426 719.386 119.388" fill="#1a1a1a"/>
          <polygon points="520.567 119.388 553.266 43.426 491.126 4.104 420.023 55.764 438.218 127.013 520.567 119.388" fill="#1a1a1a"/>
          <polygon points="459.128 308.476 396.989 253.904 340.389 300.851 367.548 384.438 440.933 389.15 459.128 308.476" fill="#1a1a1a"/>
        </g>
        <g>
          <line x1="619.975" y1="535.91" x2="619.975" y2="312.153" fill="none" stroke="#1a1a1a" stroke-miterlimit="10" stroke-width="8.856"/>
          <line x1="353.97" y1="342.643" x2="566.775" y2="273.498" fill="none" stroke="#1a1a1a" stroke-miterlimit="10" stroke-width="8.856"/>
          <line x1="455.574" y1="29.934" x2="587.096" y2="210.957" fill="none" stroke="#1a1a1a" stroke-miterlimit="10" stroke-width="8.856"/>
          <line x1="784.378" y1="29.934" x2="652.857" y2="210.957" fill="none" stroke="#1a1a1a" stroke-miterlimit="10" stroke-width="8.856"/>
          <line x1="885.983" y1="342.645" x2="673.178" y2="273.5" fill="none" stroke="#1a1a1a" stroke-miterlimit="10" stroke-width="8.856"/>
        </g>
      </g>
      <path d="M695.317,27.105c47.54,40.514,77.697,100.818,77.697,168.174,0,121.989-98.892,220.881-220.88,220.881-58.848,0-112.316-23.019-151.906-60.537,37.87,83.579,122.018,141.72,219.747,141.72,133.172,0,241.129-107.957,241.129-241.129,0-106.859-69.517-197.467-165.788-229.108Z" fill="url(#d)"/>
    </g>
    <circle cx="619.976" cy="256.213" r="241.129" fill="none" stroke="#1a1a1a" stroke-width="8.856"/>
  </g>
  <path d="M607.04,790.949c35.423-32.298,69.805-47.925,114.605-47.925,104.188,0,168.785,76.056,168.785,204.206,0,139.611-88.56,246.924-239.631,246.924-154.198,0-241.715-116.69-241.715-279.222,0-247.966,175.036-418.832,403.205-441.755l10.419,43.759c-137.528,41.676-211.501,127.109-221.92,270.887l6.253,3.126ZM588.286,953.48c0,125.026,20.838,191.706,71.89,191.706,37.506,0,48.967-48.967,48.967-147.947,0-115.647-11.461-167.74-64.597-167.74-18.753,0-36.465,15.628-47.925,32.298-5.21,18.753-8.336,69.805-8.336,91.684Z" fill="#f6c900" stroke="#1a1a1a" stroke-width="6.642"/>
</svg>