<?xml version="1.0" encoding="UTF-8"?>
<svg id="a" data-name="Layer 1" xmlns="http://www.w3.org/2000/svg" width="1080" height="1827.083" xmlns:xlink="http://www.w3.org/1999/xlink" viewBox="0 0 1080 1827.083">
  <defs>
    <pattern id="b" data-name="New Pattern" x="0" y="0" width="20" height="20" patternTransform="translate(14680.289 12687.8611) scale(2.7965)" patternUnits="userSpaceOnUse" viewBox="0 0 20 20">
      <g>
        <rect width="20" height="20" fill="none"/>
        <circle cx="20" cy="15" r="2" fill="#1a1a1a"/>
        <circle cx="10" cy="20" r="2" fill="#1a1a1a"/>
        <circle cx="0" cy="15" r="2" fill="#1a1a1a"/>
        <circle cx="20" cy="5" r="2" fill="#1a1a1a"/>
        <circle cx="10" cy="10" r="2" fill="#1a1a1a"/>
        <circle cx="0" cy="5" r="2" fill="#1a1a1a"/>
        <circle cx="10" cy="0" r="2" fill="#1a1a1a"/>
      </g>
    </pattern>
  </defs>
  <g>
    <path d="M878.066,583.569v-120.235h-166.487l-6.27-8.862c-13.35-18.87-29.487-35.203-47.615-48.632v106.807h170.035v121.259h128.798v566.233c0,83.249-23.294,147.727-73.314,202.918-47.674,52.607-113.65,91.698-183.498,133.084-53.287,31.57-108.319,64.173-156.524,104.116l-13.382,11.088-13.382-11.088c-48.197-39.938-103.22-72.538-156.432-104.064-69.921-41.426-135.908-80.521-183.588-133.136-50.018-55.191-73.312-119.67-73.312-202.918v-566.233h128.798v-121.259h170.039v-106.812c-18.13,13.431-34.27,29.765-47.62,48.636l-6.27,8.862h-166.488v120.235H52.757v616.571c0,212.537,136.754,293.557,281.538,379.338,69.861,41.388,141.88,84.06,195.514,142.574,53.636-58.514,125.653-101.186,195.514-142.574,144.786-85.781,281.541-166.801,281.541-379.338v-616.571h-128.8Z" fill="#f6c900"/>
    <path d="M598.967,374.996c-12.868-4.393-26.188-7.558-39.787-9.445v147.096h39.787v-137.652Z" fill="#f6c900"/>
    <path d="M500.452,365.55c-13.601,1.887-26.922,5.052-39.791,9.445v137.653h39.791v-147.098Z" fill="#f6c900"/>
  </g>
  <g>
    <path d="M878.066,583.569v-120.235h-166.487l-6.27-8.862c-13.35-18.87-29.487-35.203-47.615-48.632v106.807h170.035v121.259h128.798v566.233c0,83.249-23.294,147.727-73.314,202.918-47.674,52.607-113.65,91.698-183.498,133.084-53.287,31.57-108.319,64.173-156.524,104.116l-13.382,11.088-13.382-11.088c-48.197-39.938-103.22-72.538-156.432-104.064-69.921-41.426-135.908-80.521-183.588-133.136-50.018-55.191-73.312-119.67-73.312-202.918v-566.233h128.798v-121.259h170.039v-106.812c-18.13,13.431-34.27,29.765-47.62,48.636l-6.27,8.862h-166.488v120.235H52.757v616.571c0,212.537,136.754,293.557,281.538,379.338,69.861,41.388,141.88,84.06,195.514,142.574,53.636-58.514,125.653-101.186,195.514-142.574,144.786-85.781,281.541-166.801,281.541-379.338v-616.571h-128.8Z" fill="url(#b)"/>
    <path d="M598.967,374.996c-12.868-4.393-26.188-7.558-39.787-9.445v147.096h39.787v-137.652Z" fill="url(#b)"/>
    <path d="M500.452,365.55c-13.601,1.887-26.922,5.052-39.791,9.445v137.653h39.791v-147.098Z" fill="url(#b)"/>
  </g>
  <g>
    <g>
      <path d="M490.702,1175.462l20.716,20.716h43.669v-39.055c.637.654,1.274,1.296,1.905,1.908l20.258,20.257c16.24,15.937,30.534,18.299,37.546,18.299,2.641,0,4.249-.333,4.541-.398l1.634-.372v-62.756l-20.716-20.716-3.174,1.898c-3.569,2.134-7.219,3.627-10.886,4.577,14.193-10.354,25.427-26.967,31.613-46.818,3.791,37.434,16.037,67.958,34.188,85.972,0,0,9.64,9.83,20.136,13.694l-9.704,17.254c20.968,7.493,20.08,19.901,20.08,19.901-.139,6.457-4.378,7.193-6.226,7.193-1.541,0-3.607-1.666-6.002-3.594l-2.576-2.062-10.681,17.252,20.716,20.716,2.516.841c3.433,1.144,6.783,1.655,10.866,1.655,16.025,0,33.948-12.535,33.948-29.311,0-6.832-2.937-13.057-8.722-18.59l-6.541-6.548c1.433.107,2.872.18,4.318.18,20.032,0,34.426-11.367,42.347-19.791l18.305,18.414h20.179l8.229-53.489h17.483l5.043,32.773,20.716,20.716h44.305l-39.097-250.377-.279-1.775-20.716-20.716h-37.878l-36.261,236.255-23.536-23.604-1.191,3.01c-4.973,12.566-19.507,22.269-31.013,20.718-1.649-.218-3.225-.556-4.74-1-.491-1.118-.971-2.266-1.43-3.475-8.794-23.175-13.068-51.08-13.068-85.311,0-57.687,14.769-106.889,32.922-109.679.284-.043.54-.04.818-.071.014.068.032.142.047.209l.739,3.621,20.716,20.716,2.729-2.493c6.232-5.697,16.79-16.807,17.237-17.276l1.389-1.461-1.407-1.447-19.274-19.272-1.443-1.444c-8.458-8.695-22.714-19.059-42.587-19.059-37.465,0-64.904,33.5-73.781,86.525-4.567-18.692-13.397-34.823-24.96-46.305l-20.257-20.257c-11.738-11.855-26.334-18.898-42.138-18.898h-41.773s.202,252.153.202,252.153ZM809.329,1101.485l2.433-16.61,2.592,16.61h-5.025Z" fill="#1a1a1a" stroke="#1a1a1a" stroke-miterlimit="10" stroke-width="3.017"/>
      <path d="M1048.813,541.621h-108.083v-99.518l-20.716-20.716h-184.239c-2.448-2.547-4.97-5.017-7.46-7.507-6.713-6.713-20.257-20.257-20.257-20.257-9.291-8.947-19.204-17.153-29.648-24.561v-50.976l-20.716-20.716h-58.727v33.743c-6.285-1.765-12.648-3.287-19.072-4.577v-44.654l-20.715-20.716h-58.727v62.081c-6.414.742-12.772,1.748-19.075,2.971v-8.131l-20.716-20.716h-58.727v58.419c-28.819,16.569-54.511,38.725-75.307,65.598h-187.017v120.235H10.809v658.519c0,106.058,31.8,192.704,97.218,264.89,3.69,4.072,7.463,8.06,11.3,11.983l20.256,20.256c55.533,56.946,125.879,98.626,194.047,139.012,60.148,35.635,117.647,69.775,163.762,112.572,5.548,5.999,10.935,12.127,16.023,18.503l16.395,20.539,20.716,20.716,16.394-20.54c49.96-62.602,123.086-105.924,200.501-151.788,72.687-43.065,147.85-87.594,204.89-150.537,65.418-72.186,97.217-158.832,97.217-264.89v-658.518l-20.715-20.716ZM579.894,386.267c6.428.892,12.788,2.093,19.072,3.55v122.831h-19.072v-126.381ZM481.377,395.711c6.256-2.136,12.623-3.969,19.075-5.519v122.455h-19.075v-116.937ZM785.78,575.312v100.543l20.716,20.716h108.082v503.569c0,72.21-19.843,127.737-62.45,174.75-43.42,47.913-106.749,85.437-173.863,125.2-49.86,29.541-101.271,60-148.456,97.073-47.178-37.067-98.586-67.526-148.492-97.095-57.029-33.788-111.318-66.006-153.008-104.354-.033-.036-.069-.071-.102-.107-42.606-47.014-62.45-102.541-62.45-174.751v-524.285h128.8v-121.258h491.222ZM1006.865,1200.139c0,212.537-136.755,293.557-281.541,379.338-69.753,41.324-141.65,83.932-195.26,142.307-.085-.085-.173-.166-.258-.251-.151-.154-.306-.305-.458-.459-.153-.156-.311-.309-.464-.465-.152-.153-.307-.304-.458-.458-.152-.155-.308-.306-.46-.46-.153-.155-.308-.306-.46-.46-.152-.154-.307-.305-.459-.458-.153-.156-.309-.309-.464-.465-.152-.154-.307-.305-.458-.458-.152-.154-.308-.306-.46-.46s-.308-.306-.46-.46c-.152-.153-.307-.304-.458-.458-.155-.156-.311-.309-.465-.465-.151-.154-.306-.305-.458-.458-.152-.154-.308-.306-.46-.46s-.308-.306-.46-.46-.308-.306-.46-.46c-.152-.155-.308-.306-.46-.46-.152-.155-.308-.306-.46-.46-.152-.155-.308-.306-.46-.46-.152-.155-.308-.306-.46-.46-.152-.155-.308-.306-.46-.46-.152-.154-.308-.306-.46-.46-52.381-53.124-119.83-93.092-185.383-131.928-61.96-36.709-122.438-72.556-171.367-118.202-53.958-58.026-89.455-132.154-89.455-240.419v-616.57h128.798v-120.235h166.487l6.271-8.862c8.014-11.329,17.052-21.723,26.904-31.144v68.603h-170.039v121.259H103.096v566.233c0,83.249,23.294,147.727,73.312,202.918,3.096,3.416,6.277,6.771,9.525,10.078.15.154.307.304.458.458.151.154.307.304.458.458.152.156.311.307.463.463.151.155.308.306.46.46.152.156.309.307.463.463.15.154.307.304.458.458.151.154.307.304.458.459.152.155.309.307.463.462.151.155.308.306.46.46.152.156.309.307.462.463.151.154.308.304.459.458s.307.304.458.458c.152.156.309.307.463.463.151.155.308.306.46.46.152.156.309.307.462.462.151.153.306.303.457.456.152.156.309.308.463.463.151.155.308.306.459.46.152.155.309.306.462.46.152.155.309.307.462.462.15.153.306.303.457.456.152.156.309.307.462.463.152.155.309.306.46.46.152.156.311.307.463.463.151.154.307.304.458.458.151.154.308.304.459.459.151.155.309.307.462.462.152.155.309.306.46.46.152.156.311.307.463.463.151.154.307.304.458.458.151.154.307.304.459.458.151.156.309.307.462.463.152.155.309.306.46.46.152.156.311.307.463.462.15.154.307.304.458.459s.307.304.458.458c.152.156.311.308.463.463.151.155.308.306.46.46.152.155.309.307.463.462.15.154.307.304.458.458.151.154.307.304.458.458.152.156.311.307.463.463.151.155.308.306.46.46.152.156.309.307.463.463,46.803,47.845,108.931,84.656,174.524,123.518,53.211,31.527,108.234,64.127,156.432,104.064l13.382,11.088,13.381-11.088c48.206-39.943,103.238-72.546,156.525-104.116,69.848-41.386,135.823-80.477,183.498-133.084,50.018-55.19,73.314-119.669,73.314-202.918v-566.233l-20.716-20.716h-108.082v-100.543l-20.716-20.716h-149.318v-86.092c4.536,3.361,8.949,6.904,13.224,10.623,4.816,5.507,9.403,11.254,13.675,17.293l6.27,8.862,20.716,20.716h145.77v99.518l20.716,20.716h108.083v595.854Z" fill="#1a1a1a" stroke="#1a1a1a" stroke-miterlimit="10" stroke-width="3.017"/>
      <path d="M664.849,1349.928l-20.256-20.256c-1.08-1.081-2.269-2.022-3.554-2.826,5.16-6.46,12.633-11.055,22.455-14.03l-1.454-6.087-20.716-20.716c-27.836,2.795-49.977,21.429-54.999,49.243l-15.489-15.473c-4.114-4.228-10.563-6.818-18.22-6.818-12.169,0-21.155,5.074-28.112,14.201l4.058,5.801,17.333,17.264c-1.916,2.894-4.396,5.762-7.361,8.622l-28.851-35.971c-6.166-6.348-15.145-9.916-26.285-9.916-17.301,0-29.555,8.9-34.442,22.908l-16.093-16.091c-4.113-4.228-10.559-6.817-18.215-6.817-12.175,0-21.159,5.074-28.113,14.201l4.054,5.801,17.335,17.267c-4.42,6.673-11.823,13.199-21.247,19.831l1.885,14.491,20.716,20.716h48.109v-19.999l-11.506-11.048c1.961-1.509,3.668-3.089,5.171-4.72,1.487,2.739,3.307,5.197,5.472,7.315l20.256,20.256c6.221,6.358,15.243,9.934,26.318,9.934,14.061,0,24.66-5.809,30.761-15.415l13.393,13.678h48.11v-19.999l-11.506-11.048c2.286-1.759,4.245-3.611,5.908-5.533,1.748,3.548,3.972,6.672,6.684,9.249l20.256,20.256c5.618,5.574,13.319,8.813,22.878,8.813,21.012,0,33.33-14.925,33.33-34.345,0-10.12-2.904-17.897-8.061-22.736Z" fill="#1a1a1a" stroke="#1a1a1a" stroke-miterlimit="10" stroke-width="3.017"/>
      <polygon points="353.202 923.31 311.961 923.31 281.583 1033.845 252.555 944.026 231.84 923.31 189.96 923.31 189.96 1175.462 210.676 1196.178 231.164 1196.178 231.164 1072.756 255.162 1150.932 255.616 1152.415 276.332 1173.131 293.477 1173.131 309.334 1113.184 309.334 1175.462 330.05 1196.178 373.918 1196.178 373.918 944.026 353.202 923.31" fill="#1a1a1a" stroke="#1a1a1a" stroke-miterlimit="10" stroke-width="3.017"/>
      <path d="M628.232,758.658l-17.345-17.355h94.536c-3.425-4.95-7.296-9.566-11.543-13.807-.152-.154-.306-.306-.459-.459l-19.794-19.796c-15.65-15.835-36.594-26.396-59.956-28.88l50.552-50.552-20.716-20.716c-30.954-5.634-64.073,3.508-88.004,27.44-9.366,9.366-16.418,20.153-21.243,31.655-2.837-3.811-5.959-7.477-9.42-10.938l-20.716-20.716c-23.932-23.933-57.049-33.075-88.004-27.441l20.256,20.256,57.863,57.863c-11.624-4.781-24.338-7.452-37.687-7.452-33.845,0-63.728,16.953-81.631,42.826l20.715,20.716h53.29c-21.685,23.639-29.863,55.221-24.469,84.844l20.715,20.716,64.292-64.291-12.067,43.576,20.716,20.716h64.83l-27.936-100.881,100.883,100.881c5.634-30.954-3.508-64.072-27.44-88.005-.07-.07-.145-.13-.215-.2Z" fill="#1a1a1a" stroke="#1a1a1a" stroke-miterlimit="10" stroke-width="3.017"/>
      <path d="M466.42,970.446l.673.975,20.716,20.716v-48.112l-20.716-20.716h-83.187v252.153l20.716,20.716h83.187v-48.057l-20.716-20.716-3.818,5.484c-4.59,6.594-9.769,11.202-14.784,14.446v-69.815l23.024.079v-20.575l-20.715-20.716h-2.309v-71.66c3.332.341,10.277,1.551,17.929,5.798Z" fill="#1a1a1a" stroke="#1a1a1a" stroke-miterlimit="10" stroke-width="3.017"/>
      <polygon points="637.145 102.082 616.428 81.365 564.429 81.365 550.771 39.328 530.054 18.611 509.664 81.365 443.681 81.365 464.397 102.082 495.573 124.733 476.673 182.904 497.388 203.62 550.771 164.836 604.153 203.62 583.762 140.866 637.145 102.082" fill="#1a1a1a" stroke="#1a1a1a" stroke-miterlimit="10" stroke-width="3.017"/>
      <polygon points="853.093 182.824 832.377 162.108 780.377 162.108 766.719 120.07 746.003 99.354 725.612 162.108 659.629 162.108 680.345 182.824 711.521 205.476 692.621 263.647 713.336 284.363 766.719 245.579 820.101 284.363 799.71 221.609 853.093 182.824" fill="#1a1a1a" stroke="#1a1a1a" stroke-miterlimit="10" stroke-width="3.017"/>
      <polygon points="1069.529 263.567 1048.813 242.851 996.813 242.851 983.155 200.813 962.439 180.097 942.048 242.851 876.065 242.851 896.781 263.567 927.957 286.219 909.057 344.39 929.772 365.106 983.155 326.321 1036.537 365.106 1016.146 302.351 1069.529 263.567" fill="#1a1a1a" stroke="#1a1a1a" stroke-miterlimit="10" stroke-width="3.017"/>
      <polygon points="420.708 182.824 399.992 162.108 347.993 162.108 334.334 120.07 313.618 99.354 293.227 162.108 227.244 162.108 247.961 182.824 279.137 205.476 260.236 263.647 280.951 284.363 334.334 245.579 387.716 284.363 367.325 221.609 420.708 182.824" fill="#1a1a1a" stroke="#1a1a1a" stroke-miterlimit="10" stroke-width="3.017"/>
      <polygon points="204.273 263.567 183.557 242.851 131.557 242.851 117.899 200.813 97.183 180.097 76.792 242.851 10.809 242.851 31.525 263.567 62.701 286.219 43.801 344.39 64.516 365.106 117.899 326.321 171.281 365.106 150.89 302.351 204.273 263.567" fill="#1a1a1a" stroke="#1a1a1a" stroke-miterlimit="10" stroke-width="3.017"/>
    </g>
    <path d="M405.514,1363.685v.871h31.155v19.999h-48.109l-1.884-14.491c15.654-11.017,25.797-21.739,25.797-33.332,0-6.666-4.348-10.146-10.143-10.146-4.495,0-9.274,3.19-11.743,6.38l-4.053-5.801c6.953-9.127,15.938-14.201,28.113-14.201,13.333,0,23.039,7.827,23.039,18.549,0,12.898-10.869,24.639-32.171,32.171ZM519.047,1348.76c0,22.173-13.77,37.532-36.666,37.532-21.881,0-35.792-13.912-35.792-35.792,0-22.17,14.059-37.535,36.808-37.535,22.028,0,35.65,13.912,35.65,35.795ZM493.829,1350.352c0-21.733-5.216-30.576-11.448-30.576-6.085,0-10.574,8.843-10.574,29.129,0,21.881,5.069,30.576,11.301,30.576s10.722-8.837,10.722-29.129ZM575.66,1331.514c0-10.722-9.711-18.549-23.044-18.549-12.169,0-21.154,5.074-28.113,14.201l4.058,5.801c2.463-3.19,7.248-6.38,11.738-6.38,5.795,0,10.143,3.479,10.143,10.146,0,11.593-10.143,22.315-25.791,33.332l1.884,14.491h48.109v-19.999h-31.155v-.871c21.302-7.532,32.171-19.273,32.171-32.171ZM652.194,1351.947c0,19.42-12.317,34.345-33.329,34.345-21.449,0-33.619-16.228-33.619-38.835,0-34.492,24.344-58.258,56.078-61.445l1.453,6.087c-19.128,5.795-29.418,17.68-30.866,37.677l.868.434c4.927-4.492,9.706-6.666,15.938-6.666,14.491,0,23.476,10.58,23.476,28.402ZM626.981,1358.906c0-16.086-1.595-23.334-8.985-23.334-2.611,0-5.074,2.174-6.669,4.495-.721,2.605-1.158,9.706-1.158,12.751,0,17.388,2.9,26.663,10.001,26.663,5.216,0,6.811-6.811,6.811-20.575ZM1048.813,541.621v658.519c0,106.058-31.8,192.704-97.218,264.89-57.039,62.944-132.202,107.473-204.89,150.538-77.415,45.864-150.54,89.186-200.501,151.789l-16.394,20.54-16.394-20.54c-49.961-62.603-123.083-105.924-200.501-151.791-72.685-43.062-147.848-87.594-204.887-150.535-65.418-72.186-97.218-158.832-97.218-264.89v-658.519h128.799v-120.235h187.018c20.795-26.873,46.488-49.029,75.307-65.598v-58.419h58.727v33.741c12.976-3.645,26.273-6.3,39.791-7.865v-62.081h58.727v62.082c13.517,1.565,26.813,4.221,39.788,7.865v-33.743h58.727v58.423c28.817,16.568,54.508,38.723,75.302,65.594h187.018v120.235h128.799ZM559.179,512.648h39.788v-137.652c-12.868-4.393-26.189-7.558-39.788-9.445v147.097ZM460.661,512.648h39.791v-147.098c-13.6,1.887-26.922,5.052-39.791,9.445v137.653ZM273.842,554.596v121.259h-128.799v524.285c0,72.21,19.843,127.737,62.45,174.751,43.428,47.921,106.765,85.447,173.825,125.178,49.906,29.568,101.314,60.027,148.492,97.095,47.186-37.073,98.597-67.532,148.457-97.073,67.114-39.763,130.443-77.287,173.863-125.2,42.606-47.014,62.45-102.541,62.45-174.751v-524.285h-128.799v-121.259h-511.938ZM1006.865,583.569h-128.799v-120.235h-166.487l-6.27-8.862c-13.349-18.87-29.487-35.202-47.615-48.632v106.808h170.034v121.259h128.799v566.233c0,83.249-23.295,147.728-73.313,202.918-47.675,52.607-113.65,91.699-183.498,133.084-53.287,31.57-108.319,64.173-156.524,104.116l-13.382,11.088-13.382-11.088c-48.197-39.938-103.221-72.538-156.431-104.064-69.922-41.426-135.908-80.521-183.588-133.136-50.018-55.191-73.313-119.669-73.313-202.918v-566.233h128.799v-121.259h170.04v-106.812c-18.13,13.431-34.271,29.765-47.62,48.636l-6.27,8.862h-166.487v120.235H52.758v616.57c0,212.537,136.754,293.557,281.538,379.337,69.861,41.388,141.88,84.06,195.514,142.574,53.637-58.514,125.653-101.186,195.514-142.574,144.786-85.78,281.541-166.801,281.541-379.337v-616.57ZM451.893,738.142c-23.933,23.933-33.075,57.05-27.44,88.005l100.875-100.875-27.934,100.875h64.83l-27.936-100.881,100.882,100.881c5.635-30.954-3.507-64.072-27.44-88.005-7.199-7.199-15.239-13.032-23.79-17.555h100.765c-17.904-25.873-47.786-42.826-81.632-42.826-13.348,0-26.063,2.671-37.686,7.452l78.119-78.119c-30.955-5.634-64.072,3.508-88.005,27.44-12.822,12.822-21.356,28.289-25.69,44.638-4.333-16.349-12.867-31.816-25.689-44.637-23.932-23.933-57.05-33.075-88.005-27.441l78.119,78.119c-11.624-4.781-24.338-7.452-37.686-7.452-33.846,0-63.728,16.953-81.632,42.826h100.765c-8.551,4.523-16.591,10.356-23.79,17.555ZM476.672,182.904l53.382-38.784,53.382,38.784-20.39-62.754,53.382-38.784h-65.983l-20.39-62.754-20.39,62.754h-65.983l53.382,38.784-20.39,62.754ZM260.236,263.647l53.382-38.784,53.382,38.784-20.39-62.754,53.381-38.784h-65.983l-20.39-62.755-20.39,62.755h-65.983l53.382,38.784-20.39,62.754ZM43.801,344.39l53.381-38.784,53.383,38.784-20.39-62.754,53.382-38.785h-65.984l-20.39-62.754-20.39,62.754H10.809l53.382,38.785-20.39,62.754ZM692.621,263.647l53.382-38.784,53.382,38.784-20.39-62.754,53.381-38.784h-65.983l-20.39-62.755-20.39,62.755h-65.983l53.382,38.784-20.39,62.754ZM909.056,344.39l53.382-38.784,53.382,38.784-20.39-62.754,53.382-38.785h-65.983l-20.39-62.754-20.39,62.754h-65.983l53.382,38.785-20.39,62.754ZM463.269,965.872l3.823,5.549v-48.112h-83.186v252.152h83.186v-48.057l-3.818,5.484c-12.598,18.098-29.648,21.365-35.5,21.954v-98.04l23.025.079v-20.575h-23.025v-92.376c5.891.604,23.063,3.903,35.495,21.941ZM542.632,1109.495c14.076,10.271,35.407,17.137,54.451,5.749l3.173-1.898v62.755l-1.633.371c-.292.066-1.901.399-4.542.399-10.105,0-35.328-4.878-59.71-48.265v46.856h-43.669l-.202-14.111v-238.041h41.773c38.657,0,70.107,42.098,70.107,93.842,0,45.916-25.876,85.297-59.749,92.343ZM558.158,1017.152c0-36.412-9.468-75.28-23.787-78.767v157.139c11.855-3.283,23.787-33.941,23.787-78.371ZM189.96,923.31v252.152h20.488v-170.19l44.715,145.66.453,1.483h17.145l36.573-138.262v161.309h43.868v-252.152h-41.241l-36.822,133.982-43.3-133.982h-41.88ZM774.242,1175.462h-20.179l38.701-252.152h37.879l.279,1.775,39.097,250.377h-44.305l-8.231-53.489h-35.011l-8.228,53.489ZM785.578,1101.485h28.776l-14.843-95.11-13.934,95.11ZM616.549,1047.756c0,62.338,21.733,110.941,55.584,124.913l-9.703,17.254,2.302.855c10.148,3.769,17.803,11.831,17.803,18.751,0,6.759-4.372,7.488-6.251,7.488-1.54,0-3.608-1.666-6.003-3.594l-2.575-2.062-10.681,17.252,2.515.841c3.433,1.144,6.784,1.655,10.867,1.655,16.025,0,33.949-12.535,33.949-29.312,0-9.023-5.101-16.995-15.16-23.7-.814-.543-1.442-1.071-1.879-1.579,2.013.213,4.05.32,6.093.32,31.139,0,48.68-27.477,49.412-28.648l.888-1.417-1.185-1.18s-5.724-5.7-7.297-7.314l-2.261-2.319-1.191,3.01c-4.973,12.565-19.507,22.269-31.013,20.717-12.448-1.647-20.99-9.651-26.887-25.191-8.794-23.175-13.068-51.08-13.068-85.311,0-57.687,14.769-106.888,32.922-109.679,14.592-2.226,19.789,12.101,21.58,20.854l.74,3.621,2.728-2.493c6.232-5.697,16.79-16.807,17.238-17.276l1.387-1.461-1.406-1.447c-8.458-8.695-22.714-19.06-42.587-19.06-45.974,0-76.861,50.439-76.861,125.511Z" fill="#f6c900" stroke="#1a1a1a" stroke-linejoin="round" stroke-width="3.017"/>
  </g>
</svg>