<?xml version="1.0" encoding="UTF-8"?>
<svg id="a" data-name="Layer 1" xmlns="http://www.w3.org/2000/svg" width="826.728" height="1753.888" viewBox="0 0 826.728 1753.888">
  <path d="M698.043,25.422l-42.127,136.093H165.709L123.582,25.422S5.928,241.902,23.797,483.738c11.837,160.21,94.874,359.943,292.743,458.472,9.431,118.082,29.369,259.736,31.928,277.703-49.664,20.227-87.291,63.875-99.18,117.237h-29.649v37.946h-33.563v357.256h449.475v-357.256h-33.531v-37.946h-29.649c-11.892-53.362-49.516-97.013-99.183-117.237,2.562-17.967,22.5-159.632,31.931-277.719,197.848-98.537,280.873-298.254,292.71-458.456,17.869-241.837-99.785-458.317-99.785-458.317Z" fill="#f6c900"/>
  <g>
    <path d="M410.829,335.638c27.314,0,44.287,22.142,44.287,49.456,0,41.59-21.405,73.165-44.287,73.165-22.882,0-44.287-31.576-44.287-73.165,0-27.314,16.973-49.456,44.287-49.456Z" fill="none" stroke="#1a1a1a" stroke-miterlimit="10" stroke-width="12.36"/>
    <path d="M387.947,449.404v9.577c0,12.879-10.441,23.32-23.32,23.32,0,25.517,20.685,46.202,46.202,46.202,25.517,0,46.202-20.685,46.202-46.202-12.879,0-23.32-10.441-23.32-23.32v-9.577" fill="none" stroke="#1a1a1a" stroke-miterlimit="10" stroke-width="12.36"/>
    <path d="M410.829,335.638v-10.074c0-12.745-13.409-21.14-24.796-15.415-24.383,12.259-49.231,31.758-49.231,67.146,0,41.301,8.964,54.226-25.178,98.075" fill="none" stroke="#1a1a1a" stroke-miterlimit="10" stroke-width="12.36"/>
    <path d="M410.829,335.638v-10.074c0-12.745,13.409-21.14,24.796-15.415,24.383,12.259,49.231,31.758,49.231,67.146,0,41.301-8.964,54.226,25.178,98.075" fill="none" stroke="#1a1a1a" stroke-miterlimit="10" stroke-width="12.36"/>
    <path d="M364.627,482.302h-26.22l-19.339,72.335c-6.486,24.261,11.797,48.075,36.91,48.075h34.174" fill="none" stroke="#1a1a1a" stroke-miterlimit="10" stroke-width="12.36"/>
    <path d="M436.368,286.406c0,14.105-11.434,25.539-25.539,25.539s-25.539-11.434-25.539-25.539c0-27.547,25.539-40.661,25.539-40.661,0,0,25.539,13.114,25.539,40.661Z" fill="none" stroke="#1a1a1a" stroke-miterlimit="10" stroke-width="12.36"/>
    <path d="M480.008,307.518c-6.349,11.436-20.767,15.561-32.204,9.211-11.436-6.349-15.561-20.767-9.211-32.204,12.4-22.336,39.011-21.473,39.011-21.473,0,0,14.804,22.13,2.404,44.465Z" fill="none" stroke="#1a1a1a" stroke-miterlimit="10" stroke-width="12.36"/>
    <path d="M502.962,346.565c-10.173,6.338-23.559,3.23-29.897-6.944-6.338-10.173-3.23-23.559,6.944-29.897,19.869-12.379,40.805.148,40.805.148,0,0,2.018,24.314-17.851,36.693Z" fill="none" stroke="#1a1a1a" stroke-miterlimit="10" stroke-width="12.36"/>
    <path d="M318.723,346.565c10.173,6.338,23.559,3.23,29.897-6.944,6.338-10.173,3.23-23.559-6.944-29.897-19.869-12.379-40.805.148-40.805.148,0,0-2.018,24.314,17.851,36.693Z" fill="none" stroke="#1a1a1a" stroke-miterlimit="10" stroke-width="12.36"/>
    <path d="M341.6,307.518c6.349,11.436,20.767,15.561,32.204,9.211,11.436-6.349,15.561-20.767,9.211-32.204-12.4-22.336-39.011-21.473-39.011-21.473,0,0-14.804,22.13-2.404,44.465Z" fill="none" stroke="#1a1a1a" stroke-miterlimit="10" stroke-width="12.36"/>
    <polyline points="514.426 335.638 602.018 335.638 655.917 161.514 165.74 161.514 219.639 335.638 307.182 335.638" fill="none" stroke="#1a1a1a" stroke-miterlimit="10" stroke-width="12.36"/>
    <line x1="519.303" y1="161.514" x2="490.487" y2="305.305" fill="none" stroke="#1a1a1a" stroke-miterlimit="10" stroke-width="12.36"/>
    <line x1="302.354" y1="161.514" x2="331.17" y2="305.305" fill="none" stroke="#1a1a1a" stroke-miterlimit="10" stroke-width="12.36"/>
    <polyline points="602.018 335.638 602.018 441.983 483.251 482.302" fill="none" stroke="#1a1a1a" stroke-miterlimit="10" stroke-width="12.36"/>
    <polyline points="219.639 335.638 219.639 441.983 338.407 482.302" fill="none" stroke="#1a1a1a" stroke-miterlimit="10" stroke-width="12.36"/>
    <path d="M499.856,544.411l136.257-66.489c9.551-4.66,15.288-14.68,14.473-25.276l-9.657-125.59s10.891-22.503,9.73-45.62c-1.355-26.969-14.791-55.15-14.791-55.15" fill="none" stroke="#1a1a1a" stroke-miterlimit="10" stroke-width="12.36"/>
    <path d="M321.802,544.411l-136.257-66.489c-9.551-4.66-15.288-14.68-14.473-25.276l9.657-125.59s-10.891-22.503-9.73-45.62c1.355-26.969,14.791-55.15,14.791-55.15" fill="none" stroke="#1a1a1a" stroke-miterlimit="10" stroke-width="12.36"/>
    <path d="M572.37,1337.151c-16.499-74.038-82.534-129.399-161.542-129.399s-145.043,55.361-161.54,129.399h323.082Z" fill="none" stroke="#1a1a1a" stroke-miterlimit="10" stroke-width="12.36"/>
    <rect x="219.64" y="1337.151" width="382.379" height="37.946" fill="none" stroke="#1a1a1a" stroke-miterlimit="10" stroke-width="12.36"/>
    <path d="M655.917,161.514l42.126-136.092s117.654,216.481,99.785,458.316c-11.842,160.272-94.931,360.097-292.965,458.589" fill="none" stroke="#1a1a1a" stroke-miterlimit="10" stroke-width="12.36"/>
    <path d="M165.709,161.514L123.583,25.422S5.928,241.903,23.797,483.738c11.842,160.272,94.931,360.097,292.965,458.589" fill="none" stroke="#1a1a1a" stroke-miterlimit="10" stroke-width="12.36"/>
    <path d="M410.828,1207.751c22.067,0,43.117,4.326,62.36,12.163,3.37-23.637,36.845-261.474,36.845-377.903,0-122.6-37.12-170.825-37.12-170.825,0,0-25.093-6.446-62.085-6.446s-67.251,6.446-67.251,6.446c0,0-31.954,48.226-31.954,170.825,0,116.429,33.478,354.261,36.845,377.903,19.245-7.837,40.295-12.163,62.36-12.163Z" fill="none" stroke="#1a1a1a" stroke-miterlimit="10" stroke-width="12.36"/>
    <path d="M457.075,482.302h26.22s19.339,72.335,19.339,72.335c6.486,24.261-11.797,48.075-36.91,48.075h-34.174" fill="none" stroke="#1a1a1a" stroke-miterlimit="10" stroke-width="12.36"/>
    <path d="M338.407,598.45l5.169,72.736h.003s30.263-6.446,67.249-6.446,62.085,6.446,62.085,6.446l10.982-72.736" fill="none" stroke="#1a1a1a" stroke-miterlimit="10" stroke-width="12.36"/>
    <line x1="359.11" y1="900.999" x2="384.956" y2="1211.4" fill="none" stroke="#1a1a1a" stroke-miterlimit="10" stroke-width="12.36"/>
    <line x1="457.201" y1="900.999" x2="436.524" y2="1211.4" fill="none" stroke="#1a1a1a" stroke-miterlimit="10" stroke-width="12.36"/>
    <rect x="186.076" y="1375.097" width="449.475" height="357.257" fill="none" stroke="#1a1a1a" stroke-miterlimit="10" stroke-width="12.36"/>
    <polyline points="228.785 1732.354 228.785 1644.713 285.777 1574.442 285.777 1375.097" fill="none" stroke="#1a1a1a" stroke-miterlimit="10" stroke-width="12.36"/>
    <polyline points="592.841 1732.354 592.841 1644.713 535.849 1574.442 535.849 1375.097" fill="none" stroke="#1a1a1a" stroke-miterlimit="10" stroke-width="12.36"/>
    <line x1="592.841" y1="1644.713" x2="635.551" y2="1644.713" fill="none" stroke="#1a1a1a" stroke-miterlimit="10" stroke-width="12.36"/>
    <line x1="228.785" y1="1644.713" x2="186.076" y2="1644.713" fill="none" stroke="#1a1a1a" stroke-miterlimit="10" stroke-width="12.36"/>
    <rect x="327.152" y="1416.471" width="167.323" height="228.242" fill="none" stroke="#1a1a1a" stroke-miterlimit="10" stroke-width="12.36"/>
    <line x1="31.119" y1="314.959" x2="174.561" y2="397.868" fill="none" stroke="#1a1a1a" stroke-miterlimit="10" stroke-width="12.36"/>
    <line x1="21.97" y1="430.025" x2="176.991" y2="471.643" fill="none" stroke="#1a1a1a" stroke-miterlimit="10" stroke-width="12.36"/>
    <line x1="29.794" y1="534.24" x2="302.354" y2="534.371" fill="none" stroke="#1a1a1a" stroke-miterlimit="10" stroke-width="12.36"/>
    <line x1="195.266" y1="857.468" x2="341.812" y2="646.371" fill="none" stroke="#1a1a1a" stroke-miterlimit="10" stroke-width="12.36"/>
    <line x1="139.014" y1="794.641" x2="338.407" y2="606.164" fill="none" stroke="#1a1a1a" stroke-miterlimit="10" stroke-width="12.36"/>
    <line x1="90.988" y1="718.864" x2="323.641" y2="584.69" fill="none" stroke="#1a1a1a" stroke-miterlimit="10" stroke-width="12.36"/>
    <line x1="219.639" y1="343.061" x2="327.152" y2="450.677" fill="none" stroke="#1a1a1a" stroke-miterlimit="10" stroke-width="12.36"/>
    <line x1="60.743" y1="184.012" x2="172.321" y2="295.698" fill="none" stroke="#1a1a1a" stroke-miterlimit="10" stroke-width="12.36"/>
    <line x1="258.928" y1="908.549" x2="313.696" y2="785.634" fill="none" stroke="#1a1a1a" stroke-miterlimit="10" stroke-width="12.36"/>
    <line x1="317.75" y1="559.31" x2="53.297" y2="630.033" fill="none" stroke="#1a1a1a" stroke-miterlimit="10" stroke-width="12.36"/>
    <line x1="790.527" y1="314.959" x2="647.085" y2="397.868" fill="none" stroke="#1a1a1a" stroke-miterlimit="10" stroke-width="12.36"/>
    <line x1="799.676" y1="430.025" x2="644.654" y2="471.643" fill="none" stroke="#1a1a1a" stroke-miterlimit="10" stroke-width="12.36"/>
    <line x1="791.852" y1="534.24" x2="519.291" y2="534.371" fill="none" stroke="#1a1a1a" stroke-miterlimit="10" stroke-width="12.36"/>
    <line x1="626.38" y1="857.468" x2="479.833" y2="646.371" fill="none" stroke="#1a1a1a" stroke-miterlimit="10" stroke-width="12.36"/>
    <line x1="682.632" y1="794.641" x2="483.239" y2="606.164" fill="none" stroke="#1a1a1a" stroke-miterlimit="10" stroke-width="12.36"/>
    <line x1="730.658" y1="718.864" x2="498.005" y2="584.69" fill="none" stroke="#1a1a1a" stroke-miterlimit="10" stroke-width="12.36"/>
    <line x1="602.006" y1="343.061" x2="494.494" y2="450.677" fill="none" stroke="#1a1a1a" stroke-miterlimit="10" stroke-width="12.36"/>
    <line x1="760.903" y1="184.012" x2="649.325" y2="295.698" fill="none" stroke="#1a1a1a" stroke-miterlimit="10" stroke-width="12.36"/>
    <line x1="562.717" y1="908.549" x2="507.95" y2="785.634" fill="none" stroke="#1a1a1a" stroke-miterlimit="10" stroke-width="12.36"/>
    <line x1="503.895" y1="559.31" x2="768.348" y2="630.033" fill="none" stroke="#1a1a1a" stroke-miterlimit="10" stroke-width="12.36"/>
  </g>
  <g>
    <polygon points="258.928 662.303 282.428 822.156 372.606 765.211 315.66 855.389 475.513 878.888 315.66 902.387 372.606 992.565 282.428 935.62 258.928 1095.472 235.429 935.62 145.251 992.565 202.197 902.387 42.344 878.888 202.197 855.389 145.251 765.211 235.429 822.156 258.928 662.303" fill="#f6c900"/>
    <polygon points="636.122 1214.333 664.646 1346.573 796.886 1375.097 664.646 1403.621 636.122 1535.861 607.598 1403.621 475.358 1375.097 607.598 1346.573 636.122 1214.333" fill="#f6c900"/>
    <polygon points="644.014 21.534 672.538 153.774 804.778 182.298 672.538 210.822 644.014 343.061 615.49 210.822 483.251 182.298 615.49 153.774 644.014 21.534" fill="#f6c900"/>
  </g>
  <g>
    <polygon points="258.928 662.303 282.428 822.156 372.606 765.211 315.66 855.389 475.513 878.888 315.66 902.387 372.606 992.565 282.428 935.62 258.928 1095.472 235.429 935.62 145.251 992.565 202.197 902.387 42.344 878.888 202.197 855.389 145.251 765.211 235.429 822.156 258.928 662.303" fill="none" stroke="#1a1a1a" stroke-linecap="round" stroke-linejoin="round" stroke-width="12.36"/>
    <polygon points="644.014 21.534 672.538 153.774 804.778 182.298 672.538 210.822 644.014 343.061 615.49 210.822 483.251 182.298 615.49 153.774 644.014 21.534" fill="none" stroke="#1a1a1a" stroke-linecap="round" stroke-linejoin="round" stroke-width="12.36"/>
    <polygon points="636.122 1214.333 664.646 1346.573 796.886 1375.097 664.646 1403.621 636.122 1535.861 607.598 1403.621 475.358 1375.097 607.598 1346.573 636.122 1214.333" fill="none" stroke="#1a1a1a" stroke-linecap="round" stroke-linejoin="round" stroke-width="12.36"/>
  </g>
</svg>