<?xml version="1.0" encoding="UTF-8"?>
<svg id="a" data-name="Layer 1" xmlns="http://www.w3.org/2000/svg" width="1080" height="217.891" viewBox="0 0 1080 217.891">
  <g>
    <polygon points="968.28 20.274 990.29 88.013 1061.515 88.013 1003.893 129.878 1025.902 197.617 968.28 155.752 910.658 197.617 932.667 129.878 875.045 88.013 946.27 88.013 968.28 20.274" fill="#f6c900" stroke="#1a1a1a" stroke-miterlimit="10" stroke-width="3"/>
    <polygon points="968.28 140.617 933.949 165.56 947.063 125.202 912.732 100.258 955.167 100.258 968.28 59.899 981.393 100.258 1023.828 100.258 989.497 125.202 1002.611 165.56 968.28 140.617" fill="#004600" stroke="#1a1a1a" stroke-miterlimit="10" stroke-width="3"/>
  </g>
  <g>
    <polygon points="754.14 20.274 776.15 88.013 847.375 88.013 789.753 129.878 811.762 197.617 754.14 155.752 696.518 197.617 718.527 129.878 660.905 88.013 732.13 88.013 754.14 20.274" fill="#f6c900" stroke="#1a1a1a" stroke-miterlimit="10" stroke-width="3"/>
    <polygon points="754.14 140.617 719.809 165.56 732.923 125.202 698.592 100.258 741.027 100.258 754.14 59.899 767.253 100.258 809.688 100.258 775.357 125.202 788.471 165.56 754.14 140.617" fill="#004600" stroke="#1a1a1a" stroke-miterlimit="10" stroke-width="3"/>
  </g>
  <g>
    <polygon points="540 20.274 562.01 88.013 633.235 88.013 575.613 129.878 597.622 197.617 540 155.752 482.378 197.617 504.387 129.878 446.765 88.013 517.99 88.013 540 20.274" fill="#f6c900" stroke="#1a1a1a" stroke-miterlimit="10" stroke-width="3"/>
    <polygon points="540 140.617 505.669 165.56 518.783 125.202 484.452 100.258 526.887 100.258 540 59.899 553.113 100.258 595.548 100.258 561.217 125.202 574.331 165.56 540 140.617" fill="#004600" stroke="#1a1a1a" stroke-miterlimit="10" stroke-width="3"/>
  </g>
  <g>
    <polygon points="325.86 20.274 347.87 88.013 419.095 88.013 361.473 129.878 383.482 197.617 325.86 155.752 268.238 197.617 290.247 129.878 232.625 88.013 303.85 88.013 325.86 20.274" fill="#f6c900" stroke="#1a1a1a" stroke-miterlimit="10" stroke-width="3"/>
    <polygon points="325.86 140.617 291.529 165.56 304.642 125.202 270.312 100.258 312.747 100.258 325.86 59.899 338.973 100.258 381.408 100.258 347.077 125.202 360.191 165.56 325.86 140.617" fill="#004600" stroke="#1a1a1a" stroke-miterlimit="10" stroke-width="3"/>
  </g>
  <g>
    <polygon points="111.72 20.274 133.73 88.013 204.955 88.013 147.333 129.878 169.342 197.617 111.72 155.752 54.098 197.617 76.107 129.878 18.485 88.013 89.71 88.013 111.72 20.274" fill="#f6c900" stroke="#1a1a1a" stroke-miterlimit="10" stroke-width="3"/>
    <polygon points="111.72 140.617 77.389 165.56 90.502 125.202 56.172 100.258 98.607 100.258 111.72 59.899 124.833 100.258 167.268 100.258 132.937 125.202 146.051 165.56 111.72 140.617" fill="#004600" stroke="#1a1a1a" stroke-miterlimit="10" stroke-width="3"/>
  </g>
</svg>