<?xml version="1.0" encoding="UTF-8"?>
<svg id="a" data-name="Layer 1" xmlns="http://www.w3.org/2000/svg" width="1080" height="1734.688" viewBox="0 0 1080 1734.688">
  <path d="M919.019,386.248c9.237-101.394-87.431-336.571-336.244-336.571-219.819,0-344.856,197.35-336.247,336.247.341,5.506.15,11.063,3.355,27.343-.322.055-.632.079-.959.147-55.229,11.63,6.179,141.275,75.388,228.955-7.588,178.626,105.944,363.389,105.944,363.389,0,.001-18.662,109.11,35.377,231.669l-80.599,216.377-98.331,263.982h584.014l-98.497-263.982-77.611-208.115c75.272-110.114,67.727-231.14,67.727-231.215,0,0,161.9-471.945,173.917-586.421,1.554-14.789.529-38.914-17.234-41.806Z" fill="#f6c900"/>
  <polygon points="824.617 1594.024 332.804 1594.024 309.393 1664.133 850.732 1664.133 824.617 1594.024" fill="#006837"/>
  <polygon points="385.033 1453.805 358.919 1523.915 798.502 1523.915 772.22 1453.805 385.033 1453.805" fill="#006837"/>
  <g>
    <path d="M247.588,412.823c-.702-8.874-1.06-17.846-1.06-26.901,0-185.703,150.542-336.246,336.246-336.246s336.246,150.542,336.246,336.246" fill="none" stroke="#1a1a1a" stroke-miterlimit="10" stroke-width="12.36"/>
    <path d="M723.112,649.872c-93.103-15.748-73.015-204.809-123.356-194.825-23.245,4.61-15.738,50.868-7.666,76.681,90.843,290.487,37.2,625.874-131.022,879.521" fill="none" stroke="#1a1a1a" stroke-miterlimit="10" stroke-width="12.36"/>
    <path d="M718.17,744.62c6.499-26.359,8.548-53.809,6.034-80.841-1.431-15.385-4.328-30.682-4.189-46.133.139-15.451,3.66-31.503,13.554-43.371,9.894-11.868,27.207-18.349,41.472-12.414,18.253,7.594,24.074,30.112,27.557,49.572,3.487,19.482,6.844,40.276-.912,58.484-6.838,16.055-22.409,28.063-39.675,30.596" fill="none" stroke="#1a1a1a" stroke-miterlimit="10" stroke-width="12.36"/>
    <path d="M802.322,616.452c51.613-47.882,78.512-116.148,82.583-186.433,1.021-17.619,8.952-46.075,31.825-44.085,20.392,1.774,21.087,27.23,19.524,42.122-17.234,164.178-173.918,586.42-173.918,586.42,0,0-.048,102.042-39.224,182.802-51.357,105.874-164.888,213.973-164.888,213.973" fill="none" stroke="#1a1a1a" stroke-miterlimit="10" stroke-width="12.36"/>
    <path d="M595.634,543.346c-40.772,68.415-206.028,108.777-289.457-43.554-23.359-42.65-29.15-92.295-57.253-86.377-65.341,13.759,32.567,192.705,113.511,271.912,67.375,65.929,111.453,153.013,144.427,241.324" fill="none" stroke="#1a1a1a" stroke-miterlimit="10" stroke-width="12.36"/>
    <path d="M324.18,638.83c2.705,128.74,39.669,256.605,106.076,366.929,0,0-18.662,104.453,36.963,235.546" fill="none" stroke="#1a1a1a" stroke-miterlimit="10" stroke-width="12.36"/>
    <polyline points="694.455 1245.952 772.221 1453.805 385.034 1453.805 558.225 988.852" fill="none" stroke="#1a1a1a" stroke-miterlimit="10" stroke-width="12.36"/>
    <polygon points="870.718 1717.788 286.704 1717.788 385.034 1453.805 772.221 1453.805 870.718 1717.788" fill="none" stroke="#1a1a1a" stroke-miterlimit="10" stroke-width="12.36"/>
    <path d="M305.053,192.374c14.623.939,22.685,17.717,24.171,32.295,1.486,14.578-.167,30.423,7.746,42.756,9.328,14.539,28.479,18.782,45.704,20.081,17.225,1.298,35.75,1.307,49.864,11.265,14.552,10.267,22.047,29.704,38.625,36.209,13.896,5.452,31.572.516,42.999,10.12,10.584,8.896,9.767,24.974,10.533,38.778,2.18,39.306,26.074,76.715,60.819,95.222" fill="none" stroke="#1a1a1a" stroke-miterlimit="10" stroke-width="12.36"/>
    <path d="M641.136,54.731c-10.586,3.59-35.873,10.804-43.985,18.495-8.112,7.691-12.568,20.442-7.373,30.339,5.311,10.118,18.26,13.54,29.682,13.221,11.422-.32,22.872-3.289,34.158-1.503,11.286,1.786,22.828,10.686,22.012,22.083-.89,12.44-14.736,19.068-26.519,23.155-34.573,11.995-124.9,43.343-140.114,46.116-11.786,2.148-23.931,2.91-35.195,6.991-11.264,4.081-21.916,12.367-24.788,23.998-4.291,17.379,11.033,34.676,28.329,39.29,17.296,4.614,35.558.1,52.913-4.289,17.354-4.39,35.737-8.654,52.903-3.577,19.264,5.697,33.259,22.006,50.449,32.402,16.905,10.225,36.605,14.55,55.792,19.262,19.187,4.712,38.788,10.227,54.443,22.28,15.654,12.053,26.614,32.215,22.319,51.5-3.236,14.53-14.181,25.909-24.666,36.475-32.4,32.649-51.915,117.014-84.315,149.663" fill="none" stroke="#1a1a1a" stroke-miterlimit="10" stroke-width="12.36"/>
    <path d="M846.659,177.664c-12.734,39.733-12.977,77.409-3.595,118.064,3.068,13.295,7.589,26.811,17.015,36.675,15.581,16.306,40.31,18.821,62.812,20.34" fill="none" stroke="#1a1a1a" stroke-miterlimit="10" stroke-width="12.36"/>
    <polygon points="824.617 1594.024 332.804 1594.024 309.393 1664.133 850.732 1664.133 824.617 1594.024" fill="none" stroke="#1a1a1a" stroke-miterlimit="10" stroke-width="12.36"/>
    <polygon points="385.033 1453.805 358.919 1523.915 798.502 1523.915 772.22 1453.805 385.033 1453.805" fill="none" stroke="#1a1a1a" stroke-miterlimit="10" stroke-width="12.36"/>
  </g>
  <g>
    <polygon points="227.554 136.16 251.053 296.012 341.231 239.067 284.286 329.245 444.138 352.744 284.286 376.243 341.231 466.421 251.053 409.476 227.554 569.329 204.055 409.476 113.877 466.421 170.822 376.243 10.97 352.744 170.822 329.245 113.877 239.067 204.055 296.012 227.554 136.16" fill="#f6c900" stroke="#1a1a1a" stroke-linejoin="round" stroke-width="12.36"/>
    <polygon points="723.112 1024.721 746.612 1184.573 836.789 1127.628 779.844 1217.806 939.697 1241.305 779.844 1264.804 836.789 1354.982 746.612 1298.037 723.112 1457.89 699.613 1298.037 609.435 1354.982 666.38 1264.804 506.528 1241.305 666.38 1217.806 609.435 1127.628 699.613 1184.573 723.112 1024.721" fill="#f6c900" stroke="#1a1a1a" stroke-linejoin="round" stroke-width="12.36"/>
    <polygon points="908.267 543.864 936.791 676.104 1069.03 704.628 936.791 733.152 908.267 865.391 879.743 733.152 747.503 704.628 879.743 676.104 908.267 543.864" fill="#f6c900" stroke="#1a1a1a" stroke-linejoin="round" stroke-width="12.36"/>
    <polygon points="836.505 16.901 865.029 149.14 997.269 177.664 865.029 206.188 836.505 338.428 807.981 206.188 675.742 177.664 807.981 149.14 836.505 16.901" fill="#f6c900" stroke="#1a1a1a" stroke-linejoin="round" stroke-width="12.36"/>
  </g>
  <g>
    <polygon points="227.554 136.16 251.053 296.012 341.231 239.067 284.286 329.245 444.138 352.744 284.286 376.243 341.231 466.421 251.053 409.476 227.554 569.329 204.055 409.476 113.877 466.421 170.822 376.243 10.97 352.744 170.822 329.245 113.877 239.067 204.055 296.012 227.554 136.16" fill="none" stroke="#1a1a1a" stroke-linecap="round" stroke-linejoin="round" stroke-width="12.36"/>
    <polygon points="723.112 1024.721 746.612 1184.573 836.789 1127.628 779.844 1217.806 939.697 1241.305 779.844 1264.804 836.789 1354.982 746.612 1298.037 723.112 1457.89 699.613 1298.037 609.435 1354.982 666.38 1264.804 506.528 1241.305 666.38 1217.806 609.435 1127.628 699.613 1184.573 723.112 1024.721" fill="none" stroke="#1a1a1a" stroke-linecap="round" stroke-linejoin="round" stroke-width="12.36"/>
    <polygon points="836.505 16.901 865.029 149.14 997.269 177.664 865.029 206.188 836.505 338.428 807.981 206.188 675.742 177.664 807.981 149.14 836.505 16.901" fill="none" stroke="#1a1a1a" stroke-linecap="round" stroke-linejoin="round" stroke-width="12.36"/>
    <polygon points="908.267 543.864 936.791 676.104 1069.03 704.628 936.791 733.152 908.267 865.391 879.743 733.152 747.503 704.628 879.743 676.104 908.267 543.864" fill="none" stroke="#1a1a1a" stroke-linecap="round" stroke-linejoin="round" stroke-width="12.36"/>
  </g>
</svg>